<mxfile host="65bd71144e">
    <diagram id="AndmlG8OXz59sX7ShXyj" name="Page-1">
        <mxGraphModel dx="1002" dy="571" grid="1" gridSize="10" guides="1" tooltips="1" connect="1" arrows="1" fold="1" page="1" pageScale="1" pageWidth="850" pageHeight="1100" background="none" math="0" shadow="0">
            <root>
                <mxCell id="0"/>
                <mxCell id="1" parent="0"/>
                <mxCell id="8" value="" style="rounded=0;whiteSpace=wrap;html=1;align=left;" vertex="1" parent="1">
                    <mxGeometry x="80" y="140" width="510" height="60" as="geometry"/>
                </mxCell>
                <mxCell id="9" value="checkRequest(request number, storage)" style="text;html=1;align=left;verticalAlign=middle;resizable=0;points=[];autosize=1;strokeColor=none;fillColor=none;" vertex="1" parent="1">
                    <mxGeometry x="80" y="50" width="240" height="30" as="geometry"/>
                </mxCell>
                <mxCell id="10" value="" style="triangle;whiteSpace=wrap;html=1;rotation=90;horizontal=0;align=left;" vertex="1" parent="1">
                    <mxGeometry x="300" y="-80" width="60" height="500" as="geometry"/>
                </mxCell>
                <mxCell id="11" value="yes&lt;span style=&quot;color: rgba(0, 0, 0, 0); font-family: monospace; font-size: 0px;&quot;&gt;%3CmxGraphModel%3E%3Croot%3E%3CmxCell%20id%3D%220%22%2F%3E%3CmxCell%20id%3D%221%22%20parent%3D%220%22%2F%3E%3CmxCell%20id%3D%222%22%20value%3D%22%22%20style%3D%22rounded%3D0%3BwhiteSpace%3Dwrap%3Bhtml%3D1%3Balign%3Dleft%3B%22%20vertex%3D%221%22%20parent%3D%221%22%3E%3CmxGeometry%20x%3D%22100%22%20y%3D%22670%22%20width%3D%22480%22%20height%3D%22140%22%20as%3D%22geometry%22%2F%3E%3C%2FmxCell%3E%3CmxCell%20id%3D%223%22%20value%3D%22schenk%20vloeistof%20in%20object%22%20style%3D%22rounded%3D0%3BwhiteSpace%3Dwrap%3Bhtml%3D1%3Balign%3Dleft%3B%22%20vertex%3D%221%22%20parent%3D%221%22%3E%3CmxGeometry%20x%3D%22160%22%20y%3D%22710%22%20width%3D%22420%22%20height%3D%22100%22%20as%3D%22geometry%22%2F%3E%3C%2FmxCell%3E%3CmxCell%20id%3D%224%22%20value%3D%22zolang%20ingeschonken%20hoeveelheid%20%26amp%3Blt%3B%20benodigde%20hoeveelheid%20EN%20kopje%20loopt%20niet%20over%22%20style%3D%22text%3Bhtml%3D1%3BstrokeColor%3Dnone%3BfillColor%3Dnone%3Balign%3Dleft%3BverticalAlign%3Dmiddle%3BwhiteSpace%3Dwrap%3Brounded%3D0%3B%22%20vertex%3D%221%22%20parent%3D%221%22%3E%3CmxGeometry%20x%3D%22110%22%20y%3D%22680%22%20width%3D%22340%22%20height%3D%2230%22%20as%3D%22geometry%22%2F%3E%3C%2FmxCell%3E%3CmxCell%20id%3D%225%22%20value%3D%22return%20success%22%20style%3D%22rounded%3D0%3BwhiteSpace%3Dwrap%3Bhtml%3D1%3Balign%3Dleft%3B%22%20vertex%3D%221%22%20parent%3D%221%22%3E%3CmxGeometry%20x%3D%22100%22%20y%3D%22810%22%20width%3D%22480%22%20height%3D%2260%22%20as%3D%22geometry%22%2F%3E%3C%2FmxCell%3E%3C%2Froot%3E%3C%2FmxGraphModel%3E&lt;/span&gt;" style="text;html=1;strokeColor=none;fillColor=none;align=left;verticalAlign=middle;whiteSpace=wrap;rounded=0;" vertex="1" parent="1">
                    <mxGeometry x="100" y="160" width="60" height="30" as="geometry"/>
                </mxCell>
                <mxCell id="12" value="no" style="text;html=1;strokeColor=none;fillColor=none;align=left;verticalAlign=middle;whiteSpace=wrap;rounded=0;" vertex="1" parent="1">
                    <mxGeometry x="480" y="160" width="60" height="30" as="geometry"/>
                </mxCell>
                <mxCell id="13" value="request approval := true" style="rounded=0;whiteSpace=wrap;html=1;align=left;" vertex="1" parent="1">
                    <mxGeometry x="80" y="200" width="250" height="60" as="geometry"/>
                </mxCell>
                <mxCell id="14" value="-" style="rounded=0;whiteSpace=wrap;html=1;align=left;" vertex="1" parent="1">
                    <mxGeometry x="330" y="200" width="260" height="60" as="geometry"/>
                </mxCell>
                <mxCell id="15" value="request approval := false" style="rounded=0;whiteSpace=wrap;html=1;align=left;" vertex="1" parent="1">
                    <mxGeometry x="80" y="80" width="510" height="60" as="geometry"/>
                </mxCell>
                <mxCell id="16" value="return request approval" style="rounded=0;whiteSpace=wrap;html=1;align=left;" vertex="1" parent="1">
                    <mxGeometry x="80" y="260" width="510" height="60" as="geometry"/>
                </mxCell>
                <mxCell id="27" value="&lt;span style=&quot;background-color: rgb(24, 20, 29);&quot;&gt;if request number is a valid entry AND storage[request number] &amp;gt; 0&amp;nbsp;&lt;/span&gt;" style="text;html=1;strokeColor=none;fillColor=none;align=left;verticalAlign=middle;whiteSpace=wrap;rounded=0;fontSize=9;" vertex="1" parent="1">
                    <mxGeometry x="170" y="140" width="340" height="40" as="geometry"/>
                </mxCell>
                <mxCell id="31" value="request approval := checkRequest(request number, storage)" style="rounded=0;whiteSpace=wrap;html=1;align=left;" vertex="1" parent="1">
                    <mxGeometry x="80" y="831.4100000000001" width="720" height="60" as="geometry"/>
                </mxCell>
                <mxCell id="32" value="" style="rounded=0;whiteSpace=wrap;html=1;align=left;" vertex="1" parent="1">
                    <mxGeometry x="80" y="891.4100000000001" width="720" height="60" as="geometry"/>
                </mxCell>
                <mxCell id="33" value="" style="triangle;whiteSpace=wrap;html=1;rotation=90;horizontal=0;align=left;" vertex="1" parent="1">
                    <mxGeometry x="411.42" y="560" width="59.68" height="722.5" as="geometry"/>
                </mxCell>
                <mxCell id="34" value="yes&lt;span style=&quot;color: rgba(0, 0, 0, 0); font-family: monospace; font-size: 0px;&quot;&gt;%3CmxGraphModel%3E%3Croot%3E%3CmxCell%20id%3D%220%22%2F%3E%3CmxCell%20id%3D%221%22%20parent%3D%220%22%2F%3E%3CmxCell%20id%3D%222%22%20value%3D%22%22%20style%3D%22rounded%3D0%3BwhiteSpace%3Dwrap%3Bhtml%3D1%3Balign%3Dleft%3B%22%20vertex%3D%221%22%20parent%3D%221%22%3E%3CmxGeometry%20x%3D%22100%22%20y%3D%22670%22%20width%3D%22480%22%20height%3D%22140%22%20as%3D%22geometry%22%2F%3E%3C%2FmxCell%3E%3CmxCell%20id%3D%223%22%20value%3D%22schenk%20vloeistof%20in%20object%22%20style%3D%22rounded%3D0%3BwhiteSpace%3Dwrap%3Bhtml%3D1%3Balign%3Dleft%3B%22%20vertex%3D%221%22%20parent%3D%221%22%3E%3CmxGeometry%20x%3D%22160%22%20y%3D%22710%22%20width%3D%22420%22%20height%3D%22100%22%20as%3D%22geometry%22%2F%3E%3C%2FmxCell%3E%3CmxCell%20id%3D%224%22%20value%3D%22zolang%20ingeschonken%20hoeveelheid%20%26amp%3Blt%3B%20benodigde%20hoeveelheid%20EN%20kopje%20loopt%20niet%20over%22%20style%3D%22text%3Bhtml%3D1%3BstrokeColor%3Dnone%3BfillColor%3Dnone%3Balign%3Dleft%3BverticalAlign%3Dmiddle%3BwhiteSpace%3Dwrap%3Brounded%3D0%3B%22%20vertex%3D%221%22%20parent%3D%221%22%3E%3CmxGeometry%20x%3D%22110%22%20y%3D%22680%22%20width%3D%22340%22%20height%3D%2230%22%20as%3D%22geometry%22%2F%3E%3C%2FmxCell%3E%3CmxCell%20id%3D%225%22%20value%3D%22return%20success%22%20style%3D%22rounded%3D0%3BwhiteSpace%3Dwrap%3Bhtml%3D1%3Balign%3Dleft%3B%22%20vertex%3D%221%22%20parent%3D%221%22%3E%3CmxGeometry%20x%3D%22100%22%20y%3D%22810%22%20width%3D%22480%22%20height%3D%2260%22%20as%3D%22geometry%22%2F%3E%3C%2FmxCell%3E%3C%2Froot%3E%3C%2FmxGraphModel%3E&lt;/span&gt;" style="text;html=1;strokeColor=none;fillColor=none;align=left;verticalAlign=middle;whiteSpace=wrap;rounded=0;" vertex="1" parent="1">
                    <mxGeometry x="100" y="911.4100000000001" width="60" height="30" as="geometry"/>
                </mxCell>
                <mxCell id="35" value="no" style="text;html=1;strokeColor=none;fillColor=none;align=left;verticalAlign=middle;whiteSpace=wrap;rounded=0;" vertex="1" parent="1">
                    <mxGeometry x="710" y="911.4100000000001" width="60" height="30" as="geometry"/>
                </mxCell>
                <mxCell id="36" value="&lt;span style=&quot;background-color: rgb(24, 20, 29);&quot;&gt;&lt;font style=&quot;font-size: 13px;&quot;&gt;if request approval true&lt;/font&gt;&lt;/span&gt;" style="text;html=1;strokeColor=none;fillColor=none;align=center;verticalAlign=middle;whiteSpace=wrap;rounded=0;fontSize=9;" vertex="1" parent="1">
                    <mxGeometry x="250" y="891.4100000000001" width="340" height="40" as="geometry"/>
                </mxCell>
                <mxCell id="37" value="display error message and reset" style="rounded=0;whiteSpace=wrap;html=1;fontSize=13;align=left;" vertex="1" parent="1">
                    <mxGeometry x="440" y="951.4100000000001" width="360" height="298.59" as="geometry"/>
                </mxCell>
                <mxCell id="38" value="price := prices[request number]" style="rounded=0;whiteSpace=wrap;html=1;fontSize=13;align=left;" vertex="1" parent="1">
                    <mxGeometry x="80" y="951.4100000000001" width="360" height="60" as="geometry"/>
                </mxCell>
                <mxCell id="40" value="charge success := charge(price)" style="rounded=0;whiteSpace=wrap;html=1;fontSize=13;align=left;" vertex="1" parent="1">
                    <mxGeometry x="80" y="1011.4100000000001" width="360" height="60" as="geometry"/>
                </mxCell>
                <mxCell id="41" value="" style="rounded=0;whiteSpace=wrap;html=1;fontSize=13;align=left;" vertex="1" parent="1">
                    <mxGeometry x="80" y="1071.41" width="360" height="60" as="geometry"/>
                </mxCell>
                <mxCell id="42" value="" style="triangle;whiteSpace=wrap;html=1;rotation=90;horizontal=0;align=left;" vertex="1" parent="1">
                    <mxGeometry x="229.54" y="920.79" width="59.68" height="361.25" as="geometry"/>
                </mxCell>
                <mxCell id="43" value="if charge success true" style="text;html=1;strokeColor=none;fillColor=none;align=left;verticalAlign=middle;whiteSpace=wrap;rounded=0;fontSize=13;" vertex="1" parent="1">
                    <mxGeometry x="150" y="1071.41" width="250" height="30" as="geometry"/>
                </mxCell>
                <mxCell id="44" value="yes" style="text;html=1;strokeColor=none;fillColor=none;align=left;verticalAlign=middle;whiteSpace=wrap;rounded=0;fontSize=13;" vertex="1" parent="1">
                    <mxGeometry x="100" y="1091.41" width="60" height="30" as="geometry"/>
                </mxCell>
                <mxCell id="45" value="no" style="text;html=1;strokeColor=none;fillColor=none;align=left;verticalAlign=middle;whiteSpace=wrap;rounded=0;fontSize=13;" vertex="1" parent="1">
                    <mxGeometry x="365" y="1091.41" width="60" height="30" as="geometry"/>
                </mxCell>
                <mxCell id="46" value="display error message and reset" style="rounded=0;whiteSpace=wrap;html=1;fontSize=13;align=left;" vertex="1" parent="1">
                    <mxGeometry x="260" y="1131.4099999999999" width="180" height="118.59" as="geometry"/>
                </mxCell>
                <mxCell id="47" value="dispense(request number)" style="rounded=0;whiteSpace=wrap;html=1;fontSize=13;align=left;" vertex="1" parent="1">
                    <mxGeometry x="80" y="1131.41" width="180" height="60" as="geometry"/>
                </mxCell>
                <mxCell id="49" value="charge success := false" style="rounded=0;whiteSpace=wrap;html=1;fontSize=13;align=left;" vertex="1" parent="1">
                    <mxGeometry x="80" y="400" width="510" height="60" as="geometry"/>
                </mxCell>
                <mxCell id="50" value="charge(price)" style="text;html=1;align=left;verticalAlign=middle;resizable=0;points=[];autosize=1;strokeColor=none;fillColor=none;" vertex="1" parent="1">
                    <mxGeometry x="80" y="370" width="90" height="30" as="geometry"/>
                </mxCell>
                <mxCell id="51" value="storage[request number] --" style="rounded=0;whiteSpace=wrap;html=1;fontSize=13;align=left;" vertex="1" parent="1">
                    <mxGeometry x="80" y="1191.41" width="180" height="58.59" as="geometry"/>
                </mxCell>
                <mxCell id="52" value="display price" style="rounded=0;whiteSpace=wrap;html=1;fontSize=13;align=left;" vertex="1" parent="1">
                    <mxGeometry x="80" y="460" width="510" height="60" as="geometry"/>
                </mxCell>
                <mxCell id="53" value="start payment process&amp;nbsp;" style="rounded=0;whiteSpace=wrap;html=1;fontSize=13;align=left;" vertex="1" parent="1">
                    <mxGeometry x="80" y="520" width="510" height="60" as="geometry"/>
                </mxCell>
                <mxCell id="54" value="return charge success" style="rounded=0;whiteSpace=wrap;html=1;fontSize=13;align=left;" vertex="1" parent="1">
                    <mxGeometry x="80" y="700" width="510" height="60" as="geometry"/>
                </mxCell>
                <mxCell id="57" value="" style="rounded=0;whiteSpace=wrap;html=1;align=left;" vertex="1" parent="1">
                    <mxGeometry x="80" y="580" width="510" height="60" as="geometry"/>
                </mxCell>
                <mxCell id="58" value="" style="triangle;whiteSpace=wrap;html=1;rotation=90;horizontal=0;align=left;" vertex="1" parent="1">
                    <mxGeometry x="300" y="360" width="60" height="500" as="geometry"/>
                </mxCell>
                <mxCell id="59" value="yes&lt;span style=&quot;color: rgba(0, 0, 0, 0); font-family: monospace; font-size: 0px;&quot;&gt;%3CmxGraphModel%3E%3Croot%3E%3CmxCell%20id%3D%220%22%2F%3E%3CmxCell%20id%3D%221%22%20parent%3D%220%22%2F%3E%3CmxCell%20id%3D%222%22%20value%3D%22%22%20style%3D%22rounded%3D0%3BwhiteSpace%3Dwrap%3Bhtml%3D1%3Balign%3Dleft%3B%22%20vertex%3D%221%22%20parent%3D%221%22%3E%3CmxGeometry%20x%3D%22100%22%20y%3D%22670%22%20width%3D%22480%22%20height%3D%22140%22%20as%3D%22geometry%22%2F%3E%3C%2FmxCell%3E%3CmxCell%20id%3D%223%22%20value%3D%22schenk%20vloeistof%20in%20object%22%20style%3D%22rounded%3D0%3BwhiteSpace%3Dwrap%3Bhtml%3D1%3Balign%3Dleft%3B%22%20vertex%3D%221%22%20parent%3D%221%22%3E%3CmxGeometry%20x%3D%22160%22%20y%3D%22710%22%20width%3D%22420%22%20height%3D%22100%22%20as%3D%22geometry%22%2F%3E%3C%2FmxCell%3E%3CmxCell%20id%3D%224%22%20value%3D%22zolang%20ingeschonken%20hoeveelheid%20%26amp%3Blt%3B%20benodigde%20hoeveelheid%20EN%20kopje%20loopt%20niet%20over%22%20style%3D%22text%3Bhtml%3D1%3BstrokeColor%3Dnone%3BfillColor%3Dnone%3Balign%3Dleft%3BverticalAlign%3Dmiddle%3BwhiteSpace%3Dwrap%3Brounded%3D0%3B%22%20vertex%3D%221%22%20parent%3D%221%22%3E%3CmxGeometry%20x%3D%22110%22%20y%3D%22680%22%20width%3D%22340%22%20height%3D%2230%22%20as%3D%22geometry%22%2F%3E%3C%2FmxCell%3E%3CmxCell%20id%3D%225%22%20value%3D%22return%20success%22%20style%3D%22rounded%3D0%3BwhiteSpace%3Dwrap%3Bhtml%3D1%3Balign%3Dleft%3B%22%20vertex%3D%221%22%20parent%3D%221%22%3E%3CmxGeometry%20x%3D%22100%22%20y%3D%22810%22%20width%3D%22480%22%20height%3D%2260%22%20as%3D%22geometry%22%2F%3E%3C%2FmxCell%3E%3C%2Froot%3E%3C%2FmxGraphModel%3E&lt;/span&gt;" style="text;html=1;strokeColor=none;fillColor=none;align=left;verticalAlign=middle;whiteSpace=wrap;rounded=0;" vertex="1" parent="1">
                    <mxGeometry x="100" y="600" width="60" height="30" as="geometry"/>
                </mxCell>
                <mxCell id="60" value="no" style="text;html=1;strokeColor=none;fillColor=none;align=left;verticalAlign=middle;whiteSpace=wrap;rounded=0;" vertex="1" parent="1">
                    <mxGeometry x="480" y="600" width="60" height="30" as="geometry"/>
                </mxCell>
                <mxCell id="61" value="&lt;span style=&quot;background-color: rgb(24, 20, 29); font-size: 12px;&quot;&gt;if payment success&lt;/span&gt;" style="text;html=1;strokeColor=none;fillColor=none;align=center;verticalAlign=middle;whiteSpace=wrap;rounded=0;fontSize=12;" vertex="1" parent="1">
                    <mxGeometry x="170" y="580" width="340" height="40" as="geometry"/>
                </mxCell>
                <mxCell id="62" value="charge success := true" style="rounded=0;whiteSpace=wrap;html=1;fontSize=12;align=left;" vertex="1" parent="1">
                    <mxGeometry x="80" y="640" width="250" height="60" as="geometry"/>
                </mxCell>
                <mxCell id="63" value="-" style="rounded=0;whiteSpace=wrap;html=1;fontSize=12;align=left;" vertex="1" parent="1">
                    <mxGeometry x="330" y="640" width="260" height="60" as="geometry"/>
                </mxCell>
            </root>
        </mxGraphModel>
    </diagram>
</mxfile>